<svg width="32" height="32" viewBox="0 0 32 32" fill="none" xmlns="http://www.w3.org/2000/svg">
<path fill-rule="evenodd" clip-rule="evenodd" d="M0.413036 26.2105L6.70749 10.5624L8.42949 12.2576L12.5269 0L15.0802 5.60742L16.0304 4.1729L19.712 12.7794L22.3248 7.04161L29.6286 26.2105L22.592 9.91067L21.5231 16.7566L22.5029 22.1683L16.2085 6.19417L16.1403 11.6445L19.712 26.2105L13.0315 3.65115L14.9615 15.8438L12.2597 3.97719L10.7751 11.8666L11.0719 6.71556L7.36058 25.2977L7.80584 17.4737L6.262 14.3443L0.413036 26.2105Z" fill="#2b5689"/>
<path fill-rule="evenodd" clip-rule="evenodd" d="M31.7447 28.658C21.7787 13.8341 6.267 34.2138 0 26.3546C6.8902 37.4918 22.9952 18.6647 31.7447 28.658Z" fill="#2b5689"/>
<path fill-rule="evenodd" clip-rule="evenodd" d="M32 29.8237C24.1809 20.646 12.5517 33.418 6.5915 30.4604C13.0499 36.2343 25.0735 23.4409 32 29.8237Z" fill="#2b5689"/>
</svg>
